<?xml version="1.0" encoding="UTF-8"?>
<svg width="32px" height="32px" viewBox="0 0 32 32" version="1.1" xmlns="http://www.w3.org/2000/svg" xmlns:xlink="http://www.w3.org/1999/xlink">
    <!-- Generator: Sketch 54.1 (76490) - https://sketchapp.com -->
    <title>magnifying-glass</title>
    <desc>Created with Sketch.</desc>
    <g id="Search" stroke="none" stroke-width="1" fill="none" fill-rule="evenodd">
        <path d="M24.0636237,21.2351965 L27.4142136,24.5857864 C28.1952621,25.366835 28.1952621,26.633165 27.4142136,27.4142136 C26.633165,28.1952621 25.366835,28.1952621 24.5857864,27.4142136 L21.2351965,24.0636237 C19.4631372,25.2849471 17.3151443,26 15,26 C8.9244305,26 4,21.0755695 4,15 C4,8.9244305 8.9244305,4 15,4 C21.0755695,4 26,8.9244305 26,15 C26,17.3151443 25.2849471,19.4631372 24.0636237,21.2351965 Z M22,15 C22,11.1335695 18.8664305,8 15,8 C11.1335695,8 8,11.1335695 8,15 C8,18.8664305 11.1335695,22 15,22 C18.8664305,22 22,18.8664305 22,15 Z" id="Mask" fill="#000000"></path>
    </g>
</svg>